# xmcd
#
# Track frame offsets: 
#        150
#        11389
#        22753
#        34224
#        48454
#        64001
#        73586
#        93645
#        106623
#        124629
#        139747
#        153108
#        165189
#        174714
#        191587
#        205406
#        217996
#        229807
#
# Disc length: 3236 seconds
#
# Revision: 0
# Processed by: cddbd v1.5.2PL0 Copyright (c) Steve Scherf et al.
# Submitted via: ExactAudioCopy v0.99pb5
#
DISCID=e60ca212
DTITLE=Tommy James and The Shondells  - The Roulette Singles As and Bs - D
DTITLE=isc 2
DYEAR=1900
DGENRE=
TTITLE0=Somebody Cares
TTITLE1=Do Unto Me
TTITLE2=Do Something To Me
TTITLE3=Gingerbread Man
TTITLE4=Crimson and Clover
TTITLE5=Some Kind of Love
TTITLE6=Sweet Cherry Wine
TTITLE7=Breakaway
TTITLE8=Crystal Blue Persuasion
TTITLE9=I'm Alive
TTITLE10=Ball of Fire
TTITLE11=Makin' Good
TTITLE12=She
TTITLE13=Loved One
TTITLE14=Gotta Get Back To You
TTITLE15=Red Rover
TTITLE16=Come To Me
TTITLE17=Talkin' and Signifyin'
EXTD=
EXTT0=
EXTT1=
EXTT2=
EXTT3=
EXTT4=
EXTT5=
EXTT6=
EXTT7=
EXTT8=
EXTT9=
EXTT10=
EXTT11=
EXTT12=
EXTT13=
EXTT14=
EXTT15=
EXTT16=
EXTT17=
PLAYORDER=
